<?xml version="1.0" encoding="UTF-8" standalone="no" ?>
<!DOCTYPE svg PUBLIC "-//W3C//DTD SVG 1.1//EN" "http://www.w3.org/Graphics/SVG/1.1/DTD/svg11.dtd">
<svg xmlns="http://www.w3.org/2000/svg" xmlns:xlink="http://www.w3.org/1999/xlink" version="1.1" width="1920" height="1920" viewBox="0 0 1920 1920" xml:space="preserve">
<desc>Created with Fabric.js 5.3.0</desc>
<defs>
</defs>
<g transform="matrix(1 0 0 1 878.0242387817 917.20403144)" id="OKTpsSRNHXKn4Atm9_ZpZ"  >
<path style="stroke: rgb(104,104,104); stroke-width: 0; stroke-dasharray: none; stroke-linecap: butt; stroke-dashoffset: 0; stroke-linejoin: miter; stroke-miterlimit: 4; fill: rgb(1,32,36); fill-rule: nonzero; opacity: 1;" vector-effect="non-scaling-stroke"  transform=" translate(0, 0)" d="M -516.37561 -342.08205 C -688.15364 -48.537319999999966 -451.28084000000007 149.33358000000004 -205.57302000000004 216.74014999999997 C 40.13478999999995 284.14671999999996 403.2605 601.6099099999999 455.44623 414.61104 C 507.63196 227.61217 675.06118 110.19427999999999 490.23672 -133.33912999999995 C 305.41226 -376.87253999999996 -344.59758 -635.62679 -516.37561 -342.08205 z" stroke-linecap="round" />
</g>
<g transform="matrix(1 0 0 1 882.8569998878 869.4244554874)" id="lWU9dIr_1cn4_8oFpVC6l"  >
<path style="stroke: rgb(104,104,104); stroke-width: 0; stroke-dasharray: none; stroke-linecap: butt; stroke-dashoffset: 0; stroke-linejoin: miter; stroke-miterlimit: 4; fill: rgb(5,39,43); fill-rule: nonzero; opacity: 1;" vector-effect="non-scaling-stroke"  transform=" translate(0, 0)" d="M -429.31824 -160.41042 L -381.42560000000003 -253.3106 L -381.42560000000003 -253.3106 C -349.94932000000006 -314.36699 -284.91738000000004 -350.58217 -216.43700000000004 -345.18993 C -111.44286000000004 -336.92255 -62.78914000000003 -331.47452 90.98697999999993 -259.47823 C 235.16464999999994 -191.97583 296.8099299999999 -143.16093 384.0331699999999 -67.19926999999998 L 384.0331699999999 -67.19926999999998 C 454.8735199999999 -5.505279999999985 481.3838199999999 92.89534 451.1238199999999 181.82698000000002 L 428.4092999999999 248.58308000000002 L 428.4092999999999 248.58308000000002 C 413.77998999999994 291.53654 379.6777799999999 325.02732000000003 336.4666899999999 338.87717000000004 C 293.2555999999999 352.72703 246.0386799999999 345.30037000000004 209.16566999999992 318.85424000000006 C 127.31948999999992 260.15236000000004 82.29492999999992 226.95558000000005 -51.179650000000095 159.55423000000008 C -215.1383200000001 76.75918000000007 -276.68779000000006 63.074240000000074 -391.9051100000001 27.47420000000008 L -391.9051100000001 27.47420000000008 C -420.63148000000007 18.59828000000008 -443.9469900000001 -2.5523899999999173 -455.57141000000007 -30.28068999999992 C -467.19583000000006 -58.008989999999926 -465.93367000000006 -89.46325999999992 -452.1249000000001 -116.17100999999992 z" stroke-linecap="round" />
</g>
<g transform="matrix(0.9608022714 0 0 0.9786571644 864.8376201442 947.1469378777)" id="0bv_VpxYC_0IrAeVNygII"  >
<path style="stroke: rgb(104,104,104); stroke-width: 0; stroke-dasharray: none; stroke-linecap: butt; stroke-dashoffset: 0; stroke-linejoin: miter; stroke-miterlimit: 4; fill: rgb(12,44,47); fill-rule: nonzero; opacity: 1;" vector-effect="non-scaling-stroke"  transform=" translate(0, 0)" d="M -429.47174 -159.85917 L -382.18881 -251.57665 L -382.18881 -251.57665 C -350.40416 -313.23122 -283.76149 -349.85564 -213.61016999999998 -344.22141999999997 C -109.48084999999998 -335.85826 -61.57560999999998 -330.28324 90.83348000000001 -258.92697999999996 C 234.94715000000002 -191.45453999999995 296.91145 -142.37752999999998 383.9508 -66.58031999999994 L 383.9508 -66.58031999999994 C 454.93718 -4.762649999999944 481.49027 92.68264000000005 451.42554 181.04039000000006 L 428.69509 247.84332000000006 L 428.69509 247.84332000000006 C 414.06655 290.79469000000006 379.44207 324.31630000000007 335.49261 338.07707000000005 C 291.54315 351.83785000000006 243.54355 344.18622000000005 206.28688000000002 317.48035000000004 C 125.41913000000002 259.51373000000007 80.59394000000003 226.72537000000005 -51.333139999999986 160.10548000000006 C -214.72296999999998 77.59768000000005 -275.85324 63.931050000000056 -390.721 28.422490000000067 L -390.721 28.422490000000067 C -419.93381 19.392060000000065 -443.62179000000003 -1.7966099999999336 -455.49185 -29.514429999999933 C -467.36192 -57.23224999999994 -466.21231 -88.67296999999994 -452.34844 -115.48385999999994 z" stroke-linecap="round" />
</g>
<g transform="matrix(1.0643136746 0 0 1.0643136746 891.9736989163 904.2225825679)" id="aF0NMieURMzPr4gDDWl3F"  >
<path style="stroke: rgb(104,104,104); stroke-width: 0; stroke-dasharray: none; stroke-linecap: butt; stroke-dashoffset: 0; stroke-linejoin: miter; stroke-miterlimit: 4; fill: rgb(255,255,255); fill-rule: nonzero; opacity: 1;" vector-effect="non-scaling-stroke"  transform=" translate(0, 0)" d="M 0 -76.92308 C 42.46154 -76.92308 76.92308 -42.46154 76.92308 0 C 76.92308 42.46154 42.46154 76.92308 0 76.92308 C -42.46154 76.92308 -76.92308 42.46154 -76.92308 0 C -76.92308 -42.46154 -42.46154 -76.92308 0 -76.92308 z" stroke-linecap="round" />
</g>
<g transform="matrix(0.7838509215 0 0 0.7838509215 891.9736989163 904.2225825679)" id="-jV4g3bxRWWVfscAn-tie"  >
<path style="stroke: rgb(104,104,104); stroke-width: 0; stroke-dasharray: none; stroke-linecap: butt; stroke-dashoffset: 0; stroke-linejoin: miter; stroke-miterlimit: 4; fill: rgb(0,0,0); fill-rule: nonzero; opacity: 1;" vector-effect="non-scaling-stroke"  transform=" translate(0, 0)" d="M 0 -76.92323 C 42.46162 -76.92323 76.92323 -42.46162 76.92323 0 C 76.92323 42.46162 42.46162 76.92323 0 76.92323 C -42.46162 76.92323 -76.92323 42.46162 -76.92323 0 C -76.92323 -42.46162 -42.46162 -76.92323 0 -76.92323 z" stroke-linecap="round" />
</g>
</svg>