<?xml version="1.0" encoding="UTF-8" standalone="no" ?>
<!DOCTYPE svg PUBLIC "-//W3C//DTD SVG 1.1//EN" "http://www.w3.org/Graphics/SVG/1.1/DTD/svg11.dtd">
<svg xmlns="http://www.w3.org/2000/svg" xmlns:xlink="http://www.w3.org/1999/xlink" version="1.1" width="1920" height="1920" viewBox="0 0 1920 1920" xml:space="preserve">
<desc>Created with Fabric.js 5.3.0</desc>
<defs>
</defs>
<g transform="matrix(1 0 0 1 960.2359274517 1119.7457571827)" id="MuYKxLjkEVwo5geYpqYdz"  >
<path style="stroke: rgb(104,104,104); stroke-width: 0; stroke-dasharray: none; stroke-linecap: butt; stroke-dashoffset: 0; stroke-linejoin: miter; stroke-miterlimit: 4; fill: rgb(126,178,241); fill-rule: nonzero; opacity: 1;" vector-effect="non-scaling-stroke"  transform=" translate(0, 0)" d="M -354.56138 -1.86899 C -412.93869 -201.04097 -377.08247 -433.58958 -254.64136 -476.12175 C -48.072839999999985 -547.8771300000001 238.94867000000002 -371.75029 238.94867000000002 -371.75029 C 238.94867000000002 -371.75029 447.69159 -282.59967 360.71537 -34.717449999999985 C 273.73915 213.16477 284.61118 519.75594 99.78672 491.48867000000007 C -43.25711000000001 469.61138000000005 -92.43691999999999 376.7103000000001 -179.34073999999998 275.0506600000001 C -189.67829999999998 262.9578300000001 -314.45124 134.9790200000001 -354.56138999999996 -1.868989999999883 z" stroke-linecap="round" />
</g>
<g transform="matrix(0.8476387066 0 0 0.8476387066 916.3292270551 1097.2119290328)" id="_SQ48KOvxfv5Gt-KHB1px"  >
<path style="stroke: rgb(104,104,104); stroke-width: 0; stroke-dasharray: none; stroke-linecap: butt; stroke-dashoffset: 0; stroke-linejoin: miter; stroke-miterlimit: 4; fill: rgb(169,208,255); fill-rule: nonzero; opacity: 1;" vector-effect="non-scaling-stroke"  transform=" translate(0, 0)" d="M -332.08363 2.62021 C -390.46094000000005 -196.55176999999998 -354.60472000000004 -429.10038000000003 -232.16361000000003 -471.63255000000004 C -89.97279000000003 -521.02515 -16.086610000000036 -496.04916000000003 81.75843999999998 -461.86570000000006 L 81.75843999999998 -461.86570000000006 C 171.88246999999998 -430.37968000000006 249.80879 -371.3234100000001 304.48974999999996 -293.06932000000006 C 313.26984999999996 -280.5040900000001 327.24551999999994 -264.55591000000004 331.09610999999995 -254.99287000000007 C 361.00615999999997 -180.71064000000007 367.05823999999996 -109.66521000000006 350.12834999999995 -31.397470000000055 C 338.7125 21.385229999999943 325.13901 72.37734999999995 306.23560999999995 126.25202999999993 C 219.25938999999994 374.13424999999995 307.08892999999995 524.24515 122.26446999999996 495.9778799999999 C -20.779360000000054 474.1005899999999 -69.95917000000003 381.1995099999999 -156.86299000000002 279.53986999999995 C -167.20055000000002 267.44703999999996 -291.97349 139.46822999999995 -332.08364000000006 2.6202199999999607 z" stroke-linecap="round" />
</g>
<g transform="matrix(0.5327287481 0 0 0.5327287481 921.1913793224 1101.07011737)" id="Juowh3OOuOLWv5L08_YZG"  >
<path style="stroke: rgb(104,104,104); stroke-width: 0; stroke-dasharray: none; stroke-linecap: butt; stroke-dashoffset: 0; stroke-linejoin: miter; stroke-miterlimit: 4; fill: rgb(198,219,246); fill-rule: nonzero; opacity: 1;" vector-effect="non-scaling-stroke"  transform=" translate(0, 0)" d="M -412.46378 -1.96842 C -470.84109 -201.1404 -434.98487 -433.68901 -312.54376 -476.22118 C -105.97524000000001 -547.9765600000001 181.04627 -371.84972 181.04627 -371.84972 C 181.04627 -371.84972 512.23831 -249.85064 425.26209 -1.9684199999999805 C 338.28587 245.9138 226.70879 519.65651 41.88432 491.38924000000003 C -101.15951000000001 469.51195 -150.33932 376.61087000000003 -237.24313999999998 274.95123 C -247.58069999999998 262.8584 -372.35364 134.87959 -412.46379 -1.9684199999999805 z" stroke-linecap="round" />
</g>
<g transform="matrix(1 0 0 1 923.1514010225 1035.6286684767)" id="DtyOfMZUSe1X0fD8XTKAR"  >
<path style="stroke: rgb(104,104,104); stroke-width: 0; stroke-dasharray: none; stroke-linecap: butt; stroke-dashoffset: 0; stroke-linejoin: miter; stroke-miterlimit: 4; fill: rgb(255,255,255); fill-opacity: 0; fill-rule: nonzero; opacity: 1;" vector-effect="non-scaling-stroke"  transform=" translate(0, 0)" d="M 289.27428 -190.80476 C 254.08306999999996 -328.13797999999997 246.65146999999996 -341.29233 163.04215999999997 -451.71028 C 79.43285999999996 -562.12823 -8.393830000000037 -580.8192300000001 -135.95814000000001 -512.13075 C -200.70331000000002 -477.26797000000005 -206.89804 -468.58191000000005 -217.57465000000002 -451.71028 C -234.86603000000002 -424.38572 -228.24369000000002 -391.64199 -234.78830000000002 -311.31411 C -243.07327 -209.62532000000004 -225.48166000000003 -139.92519000000001 -203.5199 -58.924240000000026 L -203.5199 -58.924240000000026 C -191.31517 -13.909850000000027 -191.09854 33.514199999999974 -202.89153000000002 78.63820999999999 C -220.41556000000003 145.69111999999998 -250.09676000000002 242.18489 -305.65534 261.7938 C -379.58512 287.88667 -316.43378 605.5136399999999 -135.95813 544.63028 C -41.593800000000016 512.79653 145.74429999999998 477.68960999999996 243.25974999999997 399.00285999999994 C 332.24658999999997 327.1979799999999 335.95804 209.91221999999993 335.95804 209.91221999999993 C 335.95804 209.91221999999993 329.06595 -35.51836000000006 289.27428999999995 -190.80477000000008 z" stroke-linecap="round" />
</g>
<g transform="matrix(1.0643136746 0 0 1.0643136746 961.8738090097 1092.7364176194)" id="aF0NMieURMzPr4gDDWl3F"  >
<path style="stroke: rgb(104,104,104); stroke-width: 0; stroke-dasharray: none; stroke-linecap: butt; stroke-dashoffset: 0; stroke-linejoin: miter; stroke-miterlimit: 4; fill: rgb(255,255,255); fill-rule: nonzero; opacity: 1;" vector-effect="non-scaling-stroke"  transform=" translate(0, 0)" d="M 0 -76.92308 C 42.46154 -76.92308 76.92308 -42.46154 76.92308 0 C 76.92308 42.46154 42.46154 76.92308 0 76.92308 C -42.46154 76.92308 -76.92308 42.46154 -76.92308 0 C -76.92308 -42.46154 -42.46154 -76.92308 0 -76.92308 z" stroke-linecap="round" />
</g>
<g transform="matrix(0.7838509215 0 0 0.7838509215 961.8738090097 1097.2119290328)" id="-jV4g3bxRWWVfscAn-tie"  >
<path style="stroke: rgb(104,104,104); stroke-width: 0; stroke-dasharray: none; stroke-linecap: butt; stroke-dashoffset: 0; stroke-linejoin: miter; stroke-miterlimit: 4; fill: rgb(0,0,0); fill-rule: nonzero; opacity: 1;" vector-effect="non-scaling-stroke"  transform=" translate(0, 0)" d="M 0 -76.92323 C 42.46162 -76.92323 76.92323 -42.46162 76.92323 0 C 76.92323 42.46162 42.46162 76.92323 0 76.92323 C -42.46162 76.92323 -76.92323 42.46162 -76.92323 0 C -76.92323 -42.46162 -42.46162 -76.92323 0 -76.92323 z" stroke-linecap="round" />
</g>
</svg>