<svg xmlns="http://www.w3.org/2000/svg" xmlns:xlink="http://www.w3.org/1999/xlink" version="1.1" x="0px" y="0px" viewBox="0 0 100 125" style="enable-background:new 0 0 100 100;" xml:space="preserve"><path d="M25.88,70.98c0.68-1.23,1.33-2.2,2.26-2.96c1.11-0.9,2.48-0.9,3.59,0.02c0.71,0.59,1.42,1.18,2.25,1.58  c1.18,0.58,2.41,1.05,3.64,1.53c0.95,0.37,1.91,0.72,2.77,1.32c0.86,0.59,1.34,1.41,1.52,2.41c0.23,1.34-0.09,2.58-0.66,3.79  c-0.58,1.24-1.33,2.35-2.27,3.33c-1.16,1.21-2.59,1.92-4.24,2.19c-2.59,0.41-5.11,0.14-7.58-0.7c-1.12-0.38-2.14-0.95-3.02-1.77  c-1.14-1.08-1.47-2.36-1.12-3.85c0.32-1.35,0.87-2.61,1.43-3.86C24.94,72.92,25.4,71.82,25.88,70.98z M31.66,73.95  c-0.65-0.36-1.41-0.15-1.77,0.5c-0.32,0.59-0.07,1.42,0.52,1.76c0.59,0.33,1.41,0.08,1.75-0.53C32.52,75.04,32.31,74.31,31.66,73.95  z"/><path d="M13.75,53.49c0.05-1.14,0.42-2.33,0.88-3.5c0.29-0.73,0.58-1.45,0.83-2.19c0.53-1.56,0.56-3.13,0.11-4.71  c-0.52-1.86,0.17-3.39,1.92-4.21c1.27-0.6,2.6-0.8,3.97-0.34c0.42,0.14,0.75,0.4,1.02,0.75c1.18,1.54,2.72,2.37,4.69,2.34  c0.42-0.01,0.84,0.05,1.25,0.14c1.11,0.25,2.27,1.59,2.37,2.72c0.08,0.92-0.4,1.55-1.07,2.07c-0.39,0.3-0.79,0.59-1.24,0.78  c-1.64,0.67-2.72,1.92-3.6,3.39c-0.86,1.44-1.49,2.98-2.19,4.49c-0.14,0.31-0.3,0.61-0.42,0.92c-0.48,1.25-1.43,1.88-2.71,1.93  c-2.27,0.08-4.1-0.82-5.36-2.76C13.86,54.8,13.75,54.22,13.75,53.49z M21.06,49.12c0.72,0,1.3-0.58,1.32-1.3  c0.01-0.66-0.61-1.28-1.3-1.28c-0.72,0-1.33,0.58-1.33,1.29C19.74,48.54,20.33,49.12,21.06,49.12z"/><path d="M71.04,66.64c0,0.99,0,1.92,0.29,2.83c0.18,0.55,0.45,1.04,0.88,1.44c0.35,0.34,0.68,0.7,1,1.07  c0.41,0.48,0.48,1.03,0.25,1.6c-0.49,1.25-1.06,2.46-1.49,3.73c-0.35,1.01-0.66,2.04-1.01,3.05c-0.52,1.52-1.6,2.45-3.14,2.86  c-1.11,0.3-2.23,0.6-3.34,0.91c-0.36,0.1-0.74,0.12-1.11,0.12c-0.59,0-1.04-0.27-1.39-0.75c-0.43-0.59-0.65-1.27-0.83-1.95  c-0.6-2.26-0.43-4.51,0.23-6.73c0.54-1.82,1.37-3.52,2.46-5.08c1.28-1.83,2.79-3.44,4.71-4.62c0.43-0.26,0.89-0.46,1.39-0.56  c0.61-0.12,0.9,0.08,1.04,0.68C71.09,65.75,71.02,66.23,71.04,66.64z M66.84,74.59c-0.71,0-1.26,0.54-1.27,1.25  c-0.01,0.82,0.61,1.24,1.25,1.29c0.68,0.05,1.26-0.59,1.27-1.31C68.1,75.14,67.54,74.59,66.84,74.59z"/><path d="M34.38,15.62c1.4,0,2.57,0.76,3.57,1.86c0.72,0.8,1.19,1.78,1.77,2.68c0.82,1.27,1.94,2.25,3.23,3.03  c0.29,0.17,0.57,0.36,0.83,0.58c0.71,0.61,0.82,1.59,0.33,2.48c-0.5,0.9-1.24,1.57-2.05,2.16c-1.68,1.23-3.48,2.26-5.49,2.86  c-2.64,0.79-5.7-0.85-6.53-3.47c-0.31-0.97-0.15-1.89,0.27-2.78c0.48-1.02,1.16-1.9,1.98-2.68c0.41-0.39,0.36-0.96-0.11-1.3  c-0.24-0.18-0.52-0.25-0.82-0.27c-0.54-0.05-0.81-0.34-0.83-0.88c-0.03-0.7,0.18-1.34,0.48-1.95c0.48-1.02,1.16-1.85,2.3-2.2  C33.6,15.64,33.92,15.64,34.38,15.62z M36.61,26.13c-0.16,0.19-0.06,0.31,0.13,0.34c0.32,0.05,0.65,0.08,0.96-0.04  c0.25-0.09,0.32-0.31,0.42-0.54c0.38-0.87,0.3-1.21-0.49-1.65c-0.44-0.24-1.07-0.14-1.39,0.22c-0.34,0.38-0.39,1.06-0.14,1.51  c0.12,0.22,0.24,0.19,0.39,0.04C36.53,26.05,36.57,26.09,36.61,26.13z"/><path d="M86.23,50.05c0.04,1.2-0.13,2.3-0.55,3.35c-0.52,1.29-1.34,2.36-2.37,3.28c-0.64,0.57-1.4,0.72-2.19,0.78  c-0.79,0.06-1.25-0.35-1.45-1.18c-0.11-0.46-0.19-0.94-0.3-1.4c-0.13-0.54-0.55-0.79-1.1-0.7c-0.63,0.1-1.05,0.48-1.37,0.99  c-0.57,0.91-1.31,1.11-2.22,0.56c-1.19-0.71-1.97-1.77-2.52-3.01c-0.57-1.29-0.94-2.63-0.92-4.06c0-0.48,0.14-0.62,0.62-0.64  c0.43-0.01,0.86,0.06,1.28,0.15c0.26,0.06,0.52,0.12,0.79,0.17c0.46,0.1,0.81-0.04,1.1-0.42c0.49-0.66,1-1.31,1.58-1.91  c1.11-1.16,2.57-1.28,3.9-0.58c0.36,0.19,0.61,0.51,0.88,0.8c0.34,0.36,0.73,0.48,1.2,0.36c0.36-0.09,0.73-0.17,1.09-0.26  c1.39-0.35,1.78-0.03,2.27,1.38C86.2,48.49,86.28,49.3,86.23,50.05z M78.25,49.36c0.03,0.8,0.57,1.2,1.22,1.2  c0.75,0.01,1.15-0.61,1.21-1.24c0.05-0.52-0.65-1.14-1.23-1.14C78.75,48.17,78.25,48.67,78.25,49.36z"/><path d="M38.19,58.27c-0.09-0.77,0.35-1.24,0.94-1.62c0.39-0.25,0.81-0.47,1.26-0.59c1.55-0.43,3.02-1.12,4.6-1.45  c1.29-0.28,2.59-0.46,3.89-0.69c0.78-0.14,1.53-0.36,2.2-0.83c0.57-0.39,1.24-0.45,1.91-0.22c0.39,0.13,0.68,0.4,0.84,0.79  c0.21,0.54,0.5,1.02,0.99,1.37c0.28,0.2,0.3,0.52,0.32,0.82c0.05,0.67-0.18,1.28-0.46,1.88c-0.29,0.61-0.62,1.2-0.99,1.77  c-0.36,0.55-0.49,1.11-0.33,1.76c0.08,0.34,0.13,0.68,0.06,1.04c-0.08,0.38-0.27,0.67-0.59,0.87c-0.64,0.39-1.35,0.51-2.08,0.49  c-1.72-0.06-3.27-0.69-4.66-1.64c-1.45-0.99-2.99-1.7-4.7-2.06c-0.42-0.09-0.78-0.08-1.12,0.27c-0.38,0.38-1.18,0.19-1.57-0.33  C38.33,59.4,38.15,58.87,38.19,58.27z M47.58,58.14c-0.02,0.71,0.51,1.29,1.22,1.31c0.71,0.02,1.26-0.52,1.3-1.27  c0.03-0.71-0.67-1.22-1.22-1.23C48.31,56.93,47.54,57.44,47.58,58.14z"/><path d="M47.9,39.19c-0.02-0.48,0.04-1,0.13-1.52c0.16-0.87,0.82-1.54,1.69-1.71c1.62-0.32,3.17-0.86,4.68-1.51  c0.58-0.25,1.14-0.53,1.72-0.78c0.56-0.25,1.15-0.26,1.7-0.02c0.89,0.4,1.66,0.97,2.3,1.72c0.41,0.48,0.43,1.08,0.51,1.64  c0.14,1,0.55,1.87,1.09,2.7c0.48,0.74,0.49,1.72-0.04,2.43c-0.89,1.21-2.03,2.12-3.42,2.69c-0.76,0.31-1.51,0.18-2.12-0.36  c-1.75-1.52-3.8-2.25-6.08-2.42c-0.83-0.06-1.48-0.4-1.88-1.14C47.89,40.39,47.9,39.81,47.9,39.19z M56.39,39.47  c-0.08,0.57,0.58,1.14,1.12,1.14c0.72,0,1.25-0.63,1.26-1.17c0.01-0.68-0.6-1.25-1.01-1.23C56.84,38.27,56.43,38.57,56.39,39.47z"/><path d="M74.99,25.31c-0.05,1.27-0.14,2.51-0.53,3.71c-0.14,0.42-0.33,0.82-0.57,1.19c-0.84,1.3-2.68,1.46-3.75,0.33  c-0.67-0.71-1.08-1.57-1.54-2.41c-0.11-0.19-0.22-0.39-0.33-0.58c-0.24-0.41-0.59-0.64-1.05-0.74c-0.91-0.21-1.85-0.25-2.74-0.52  c-0.17-0.05-0.34-0.1-0.5-0.16c-1.31-0.51-1.76-1.5-1.26-2.83c0.42-1.13,1.26-1.85,2.35-2.3c1.01-0.42,2.09-0.56,3.17-0.67  c1.41-0.14,2.82-0.12,4.21,0.18c0.29,0.06,0.59,0.15,0.87,0.26c0.73,0.28,1.21,0.76,1.37,1.58C74.87,23.34,74.94,24.33,74.99,25.31z   M71.22,23.21c-0.69-0.01-1.26,0.55-1.28,1.25c-0.01,0.7,0.56,1.29,1.27,1.3c0.65,0.01,1.28-0.61,1.29-1.26  C72.51,23.79,71.94,23.21,71.22,23.21z"/><path d="M36.61,26.13c-0.04-0.04-0.08-0.08-0.12-0.12c-0.05-0.08-0.1-0.16-0.14-0.24c-0.21-0.41-0.12-0.89,0.22-1.17  c0.34-0.27,0.81-0.27,1.16,0c0.33,0.25,0.43,0.73,0.24,1.13c-0.18,0.39-0.59,0.57-1.05,0.47C36.81,26.18,36.71,26.15,36.61,26.13z"/><path d="M30.58,75.85c-0.45-0.26-0.59-0.77-0.33-1.23c0.25-0.45,0.81-0.61,1.27-0.35c0.43,0.25,0.57,0.81,0.33,1.25  C31.59,75.98,31.05,76.12,30.58,75.85z"/><path d="M21.05,48.73c-0.55,0-0.91-0.36-0.92-0.92c-0.01-0.5,0.39-0.88,0.93-0.88c0.51,0,0.92,0.39,0.92,0.89  C21.98,48.38,21.62,48.73,21.05,48.73z"/><path d="M66.81,76.77c-0.5-0.02-0.91-0.44-0.89-0.93c0.02-0.51,0.43-0.91,0.93-0.9c0.51,0.01,0.93,0.45,0.91,0.96  C67.72,76.39,67.3,76.78,66.81,76.77z"/><path d="M78.52,49.37c0-0.51,0.43-0.93,0.95-0.92c0.49,0.01,0.9,0.44,0.89,0.94c-0.01,0.48-0.42,0.89-0.89,0.9  C78.94,50.29,78.52,49.88,78.52,49.37z"/><path d="M49.75,58.2c-0.01,0.5-0.41,0.9-0.91,0.91c-0.51,0-0.93-0.42-0.92-0.94c0-0.51,0.43-0.91,0.95-0.9  C49.36,57.29,49.76,57.7,49.75,58.2z"/><path d="M57.57,40.31c-0.61,0-0.88-0.3-0.92-0.9c-0.03-0.52,0.4-0.93,0.92-0.93c0.47,0,0.89,0.42,0.91,0.88  C58.5,39.88,58.09,40.3,57.57,40.31z"/><path d="M72.13,24.52c0,0.49-0.4,0.86-0.9,0.87c-0.53,0-0.93-0.4-0.93-0.93c0-0.5,0.42-0.91,0.91-0.91  C71.75,23.56,72.14,23.96,72.13,24.52z"/><text x="0" y="115" fill="#000000" font-size="5px" font-weight="bold" font-family="'Helvetica Neue', Helvetica, Arial-Unicode, Arial, Sans-serif">Created by Kris.27</text><text x="0" y="120" fill="#000000" font-size="5px" font-weight="bold" font-family="'Helvetica Neue', Helvetica, Arial-Unicode, Arial, Sans-serif">from the Noun Project</text></svg>