<?xml version="1.0" encoding="UTF-8" standalone="no" ?>
<!DOCTYPE svg PUBLIC "-//W3C//DTD SVG 1.1//EN" "http://www.w3.org/Graphics/SVG/1.1/DTD/svg11.dtd">
<svg xmlns="http://www.w3.org/2000/svg" xmlns:xlink="http://www.w3.org/1999/xlink" version="1.1" width="1920" height="1920" viewBox="0 0 1920 1920" xml:space="preserve">
<desc>Created with Fabric.js 5.3.0</desc>
<defs>
</defs>
<g transform="matrix(1 0 0 1.0004334878 1312.2536806342 921.1981216137)" id="pf-2Z-RsOjTtMf1iueQ6Z"  >
<path style="stroke: rgb(0,0,0); stroke-width: 3; stroke-dasharray: none; stroke-linecap: butt; stroke-dashoffset: 0; stroke-linejoin: miter; stroke-miterlimit: 4; fill: none; fill-rule: nonzero; opacity: 1;" vector-effect="non-scaling-stroke"  transform=" translate(0, 0)" d="M -395.49678 -78.14929 C -307.43336 187.67176999999998 -188.08607 547.92379 -188.08607 547.92379 L -7.610420000000005 637.0744100000001 L 205.48131 569.6678400000001 L 540.33975 -515.3604699999999 L -73.34258 -637.0744099999998 L -540.33975 -515.3604699999999 C -540.33975 -515.3604699999999 -483.5602 -343.97035999999986 -395.49677999999994 -78.14928999999984 z" stroke-linecap="round" />
</g>
<g transform="matrix(1 0 0 1 1278.550396376 921.6981216137)" id="oW4Uvo2unvCX49Pt5IgoE"  >
<path style="stroke: rgb(0,0,0); stroke-width: 3; stroke-dasharray: none; stroke-linecap: butt; stroke-dashoffset: 0; stroke-linejoin: miter; stroke-miterlimit: 4; fill: rgb(255,255,255); fill-opacity: 0; fill-rule: nonzero; opacity: 1;" vector-effect="non-scaling-stroke"  transform=" translate(0, 0)" d="M 33.70328 637.85058 L -33.70329 -637.8505700000001" stroke-linecap="round" />
</g>
<g transform="matrix(1 0 0 1 911.0758776897 833.8844847112)" id="Pig__xJ2f6XI_5ahE8WVD"  >
<path style="stroke: rgb(0,0,0); stroke-width: 1; stroke-dasharray: none; stroke-linecap: butt; stroke-dashoffset: 0; stroke-linejoin: miter; stroke-miterlimit: 4; fill: rgb(133,207,139); fill-rule: nonzero; opacity: 1;" vector-effect="non-scaling-stroke"  transform=" translate(0, 0)" d="M 16.30804 -35.87769 L -48.924119999999995 35.87769 L 48.92412000000001 16.308040000000002 z" stroke-linecap="round" />
</g>
<g transform="matrix(1.7615689027 0 0 1.7615689027 1699.5048391877 797.506795017)" id="9CXkaQkvDva8i0i_IQQcL"  >
<path style="stroke: rgb(0,0,0); stroke-width: 1; stroke-dasharray: none; stroke-linecap: butt; stroke-dashoffset: 0; stroke-linejoin: miter; stroke-miterlimit: 4; fill: rgb(255,0,14); fill-rule: nonzero; opacity: 1;" vector-effect="non-scaling-stroke"  transform=" translate(0, 0)" d="M 16.30804 -35.87769 L -48.924119999999995 35.87769 L 48.92412000000001 16.308040000000002 z" stroke-linecap="round" />
</g>
<g transform="matrix(1 0 0 1 1443.305209513 1123.080407701)" id="PLAdCM4wSygzjDyB0HDMg"  >
<path style="stroke: rgb(0,0,0); stroke-width: 1; stroke-dasharray: none; stroke-linecap: butt; stroke-dashoffset: 0; stroke-linejoin: miter; stroke-miterlimit: 4; fill: none; fill-rule: nonzero; opacity: 1;" vector-effect="non-scaling-stroke"  transform=" translate(0, 0)" d="M -61.97055 -51.09853 L -22.831250000000004 -20.656849999999995 L 16.308049999999994 -61.97054999999999 L 61.97055999999999 -29.354469999999992 L 61.97055999999999 22.831260000000007 L 16.308049999999994 61.970560000000006 L -23.118930000000006 24.012360000000008" stroke-linecap="round" />
</g>
<g transform="matrix(1 0 0 1 1420.6862690937 1125.1109682251)" id="znLQmEXgkKljy7Ie_vqx7"  >
<path style="stroke: rgb(0,0,0); stroke-width: 1; stroke-dasharray: none; stroke-linecap: butt; stroke-dashoffset: 0; stroke-linejoin: miter; stroke-miterlimit: 4; fill: rgb(255,255,255); fill-opacity: 0; fill-rule: nonzero; opacity: 1;" vector-effect="non-scaling-stroke"  transform=" translate(0, 0)" d="M 0 22.4053 L 0 -22.4053" stroke-linecap="round" />
</g>
<g transform="matrix(1 0 0 1 1448.1850159236 1049.6939654582)" id="xo-SnJ9zEa37whvLknaJe"  >
<path style="stroke: rgb(0,0,0); stroke-width: 1; stroke-dasharray: none; stroke-linecap: butt; stroke-dashoffset: 0; stroke-linejoin: miter; stroke-miterlimit: 4; fill: rgb(255,255,255); fill-opacity: 0; fill-rule: nonzero; opacity: 1;" vector-effect="non-scaling-stroke"  transform=" translate(0, 0)" d="M 10.91589 10.91589 L -10.91588 -10.91588" stroke-linecap="round" />
</g>
<g transform="matrix(1 0 0 1 1401.2604618402 1127.5786612678)" id="MXydUfhrPPA1jPplocWjI"  >
<path style="stroke: rgb(0,0,0); stroke-width: 1; stroke-dasharray: none; stroke-linecap: butt; stroke-dashoffset: 0; stroke-linejoin: miter; stroke-miterlimit: 4; fill: rgb(255,255,255); fill-opacity: 0; fill-rule: nonzero; opacity: 1;" vector-effect="non-scaling-stroke"  transform=" translate(0, 0)" d="M 19.92581 20.43761 L -19.925800000000002 -20.43761" stroke-linecap="round" />
</g>
<g transform="matrix(1 0 0 1 898.8249847571 881.9435603354)" id="1_c-AnJF42ovCTvjuZ7oX"  >
<path style="stroke: rgb(0,0,0); stroke-width: 1; stroke-dasharray: none; stroke-linecap: butt; stroke-dashoffset: 0; stroke-linejoin: miter; stroke-miterlimit: 4; fill: rgb(255,255,255); fill-opacity: 0; fill-rule: nonzero; opacity: 1;" vector-effect="non-scaling-stroke"  transform=" translate(0, 0.000005)" d="M -37.17323 -11.68139 L 37.17323 11.68138" stroke-linecap="round" />
</g>
<g transform="matrix(1 0 0 1 947.4365940764 872.3721401959)" id="uh_kJ_kQ7us3-9KX1e0LA"  >
<path style="stroke: rgb(0,0,0); stroke-width: 1; stroke-dasharray: none; stroke-linecap: butt; stroke-dashoffset: 0; stroke-linejoin: miter; stroke-miterlimit: 4; fill: rgb(255,255,255); fill-opacity: 0; fill-rule: nonzero; opacity: 1;" vector-effect="non-scaling-stroke"  transform=" translate(0, 0)" d="M 12.56341 -21.75281 L -12.5634 21.752799999999997" stroke-linecap="round" />
</g>
<g transform="matrix(1 0 0 1 1437.2997212297 667.3391751983)" id="hAbH_sfvnWqWkB8isW5dQ"  >
<path style="stroke: rgb(0,0,0); stroke-width: 1; stroke-dasharray: none; stroke-linecap: butt; stroke-dashoffset: 0; stroke-linejoin: miter; stroke-miterlimit: 4; fill: rgb(0,0,0); fill-opacity: 0.29; fill-rule: nonzero; opacity: 1;" vector-effect="non-scaling-stroke"  transform=" translate(0, 0)" d="M -105.6962 145.06794 L 58.86076 -161.26117000000002 L 91.77215 -182.78016000000002 L 105.69619999999999 -149.86877000000004 L -71.51899000000002 157.72616999999997 L -105.69621000000001 182.78015999999997 z" stroke-linecap="round" />
</g>
<g transform="matrix(1 0 0 1 1321.9285996661 842.0019094189)" id="Vhm2E8akex8n374Yp7cK8"  >
<path style="stroke: rgb(0,0,0); stroke-width: 1; stroke-dasharray: none; stroke-linecap: butt; stroke-dashoffset: 0; stroke-linejoin: miter; stroke-miterlimit: 4; fill: rgb(255,255,255); fill-opacity: 0; fill-rule: nonzero; opacity: 1;" vector-effect="non-scaling-stroke"  transform=" translate(0, 0)" d="M 9.17492 8.11742 L -9.17492 -8.117430000000002" stroke-linecap="round" />
</g>
<g transform="matrix(1 0 0 1 1513.8819997107 478.6128137385)" id="mjiDXUIGwSkEPxctqaToA"  >
<path style="stroke: rgb(0,0,0); stroke-width: 1; stroke-dasharray: none; stroke-linecap: butt; stroke-dashoffset: 0; stroke-linejoin: miter; stroke-miterlimit: 4; fill: rgb(255,255,255); fill-opacity: 0; fill-rule: nonzero; opacity: 1;" vector-effect="non-scaling-stroke"  transform=" translate(0, 0)" d="M 15.18987 5.4462 L -15.18988 -5.44621" stroke-linecap="round" />
</g>
<g transform="matrix(1 0 0 1 1400.8166920935 651.0147124726)" id="kW80bDLLWI7vvn6N0ymSh"  >
<path style="stroke: rgb(0,0,0); stroke-width: 1; stroke-dasharray: none; stroke-linecap: butt; stroke-dashoffset: 0; stroke-linejoin: miter; stroke-miterlimit: 4; fill: rgb(255,255,255); fill-opacity: 0; fill-rule: nonzero; opacity: 1;" vector-effect="non-scaling-stroke"  transform=" translate(0, 0)" d="M -78.88809 153.79747 L 78.88809 -153.79747" stroke-linecap="round" />
</g>
<g transform="matrix(1 0 0 1 1213.9920712572 1440.6679871011)" id="vfkDY3M0DH-7O4gs8Ihqx"  >
<path style="stroke: rgb(0,0,0); stroke-width: 1; stroke-dasharray: none; stroke-linecap: butt; stroke-dashoffset: 0; stroke-linejoin: miter; stroke-miterlimit: 4; fill: rgb(96,197,180); fill-rule: nonzero; opacity: 1;" vector-effect="non-scaling-stroke"  transform=" translate(0, 0)" d="M -26.08696 -19.56522 L 26.086949999999998 4.347819999999999 L 13.043469999999997 19.56521 L -26.086959999999998 -6.521750000000001 z" stroke-linecap="round" />
</g>
<g transform="matrix(1 0 0 1 1180.2964190833 693.1340159323)" id="gVtC4VPtuMbK6S2GutEDA"  >
<path style="stroke: rgb(0,0,0); stroke-width: 1; stroke-dasharray: none; stroke-linecap: butt; stroke-dashoffset: 0; stroke-linejoin: miter; stroke-miterlimit: 4; fill: rgb(107,3,242); fill-rule: nonzero; opacity: 1;" vector-effect="non-scaling-stroke"  transform=" translate(0, 0)" d="M -33.69565 -8.98777 L 33.69565 -25.79484 L 7.108689999999999 25.79484 z" stroke-linecap="round" />
</g>
<g transform="matrix(1 0 0 1 929.6624923786 436.0151252409)" id="bkcdskaEzHQUVuq-qCG3s"  >
<path style="stroke: rgb(0,0,0); stroke-width: 1; stroke-dasharray: none; stroke-linecap: butt; stroke-dashoffset: 0; stroke-linejoin: miter; stroke-miterlimit: 4; fill: rgb(255,224,0); fill-rule: nonzero; opacity: 1;" vector-effect="non-scaling-stroke"  transform=" translate(0, 0)" d="M -18.58661 0.30504 L 30.83751 -36.65148 L 30.33751 0.3050399999999982 L -30.83751 36.651489999999995 z" stroke-linecap="round" />
</g>
<g transform="matrix(0.5735764364 0.8191520443 -0.8191520443 0.5735764364 1432.1542020935 407.8333070591)" id="X2MWMz2KgCaKw3DZ4EccW"  >
<path style="stroke: rgb(0,0,0); stroke-width: 1; stroke-dasharray: none; stroke-linecap: butt; stroke-dashoffset: 0; stroke-linejoin: miter; stroke-miterlimit: 4; fill: rgb(0,124,255); fill-rule: nonzero; opacity: 1;" vector-effect="non-scaling-stroke"  transform=" translate(0, -0.000005)" d="M -18.58661 0.30504 L 30.83751 -36.65148 L 30.33751 0.3050399999999982 L -30.83751 36.651489999999995 z" stroke-linecap="round" />
</g>
<g transform="matrix(1 0 0 1 674.8616364746 1420.6027697098)" id="YhJv2rGIzIMBeMsP6V3yd"  >
<path style="stroke: rgb(0,0,0); stroke-width: 1; stroke-dasharray: none; stroke-linecap: butt; stroke-dashoffset: 0; stroke-linejoin: miter; stroke-miterlimit: 4; fill: rgb(255,255,255); fill-opacity: 0; fill-rule: nonzero; opacity: 1;" vector-effect="non-scaling-stroke"  transform=" translate(0, 0)" d="M 436.95652 0 L -436.95652 0" stroke-linecap="round" />
</g>
<g transform="matrix(1 0 0 1 1712.4396496832 1420.8527697098)" id="VrykPx3zQ-09F89PL9Yqo"  >
<path style="stroke: rgb(0,0,0); stroke-width: 1; stroke-dasharray: none; stroke-linecap: butt; stroke-dashoffset: 0; stroke-linejoin: miter; stroke-miterlimit: 4; fill: rgb(255,255,255); fill-opacity: 0; fill-rule: nonzero; opacity: 1;" vector-effect="non-scaling-stroke"  transform=" translate(0, 0)" d="M -168.94373 -0.25 L 168.94372 0.25" stroke-linecap="round" />
</g>
<g transform="matrix(1 0 0 1 1110.731201692 1009.0382500127)" id="VdKWieTRQEA8ifHrGmMk8"  >
<path style="stroke: rgb(0,0,0); stroke-width: 1; stroke-dasharray: none; stroke-linecap: butt; stroke-dashoffset: 0; stroke-linejoin: miter; stroke-miterlimit: 4; fill: rgb(214,135,174); fill-rule: nonzero; opacity: 1;" vector-effect="non-scaling-stroke"  transform=" translate(0, 0)" d="M -46.73913 -29.23983 L 1.5869599999999977 29.23983 L 46.739129999999996 -29.23983 z" stroke-linecap="round" />
</g>
<g transform="matrix(1 0 0 1 1087.9051147355 1025.7005957968)" id="4eQ1rQ1Rl9RZ6-97DwN2_"  >
<path style="stroke: rgb(0,0,0); stroke-width: 1; stroke-dasharray: none; stroke-linecap: butt; stroke-dashoffset: 0; stroke-linejoin: miter; stroke-miterlimit: 4; fill: rgb(255,255,255); fill-opacity: 0; fill-rule: nonzero; opacity: 1;" vector-effect="non-scaling-stroke"  transform=" translate(0, 0)" d="M 24.41304 12.57748 L 22.826079999999997 46.40217 L -24.413050000000005 -46.40218" stroke-linecap="round" />
</g>
<g transform="matrix(1 0 0 1 1134.3507669094 1025.4505957968)" id="Y1shHXzlh_ABceOYu14d5"  >
<path style="stroke: rgb(0,0,0); stroke-width: 1; stroke-dasharray: none; stroke-linecap: butt; stroke-dashoffset: 0; stroke-linejoin: miter; stroke-miterlimit: 4; fill: rgb(255,255,255); fill-opacity: 0; fill-rule: nonzero; opacity: 1;" vector-effect="non-scaling-stroke"  transform=" translate(0, 0)" d="M 23.61957 -46.15217 L -23.619560000000003 46.15218" stroke-linecap="round" />
</g>
<g transform="matrix(1 0 0 1 1094.7290161738 641.825591745)" id="eP3TAnnJb4ky2-QaBypvy"  >
<path style="stroke: rgb(0,0,0); stroke-width: 1; stroke-dasharray: none; stroke-linecap: butt; stroke-dashoffset: 0; stroke-linejoin: miter; stroke-miterlimit: 4; fill: none; fill-rule: nonzero; opacity: 1;" vector-effect="non-scaling-stroke"  transform=" translate(0.000005, 0)" d="M 65.0161 -337.47283 L -65.01611 252.79935000000006 L 36.08067 337.47283000000004" stroke-linecap="round" />
</g>
<g transform="matrix(1 0 0 1 1256.1478905314 1271.6066569813)" id="yB31-ZXQnal95CSb1Zt0W"  >
<path style="stroke: rgb(0,0,0); stroke-width: 1; stroke-dasharray: none; stroke-linecap: butt; stroke-dashoffset: 0; stroke-linejoin: miter; stroke-miterlimit: 4; fill: rgb(255,255,255); fill-opacity: 0; fill-rule: nonzero; opacity: 1;" vector-effect="non-scaling-stroke"  transform=" translate(0, 0.000005)" d="M -111.74684 -265.25963 L 40.837749999999986 12.532350000000008 L 111.74683999999999 265.25962000000004" stroke-linecap="round" />
</g>
<g transform="matrix(1 0 0 1 1559.2644723259 1179.9238867072)" id="Qfue3z3DXxHFPMCs_qMYY"  >
<path style="stroke: rgb(0,0,0); stroke-width: 1; stroke-dasharray: none; stroke-linecap: butt; stroke-dashoffset: 0; stroke-linejoin: miter; stroke-miterlimit: 4; fill: none; fill-rule: nonzero; opacity: 1;" vector-effect="non-scaling-stroke"  transform=" translate(0, 0)" d="M -111.57946 331.15727 L 53.05714999999999 -219.92388999999997 L 111.57945 -331.15727" stroke-linecap="round" />
</g>
<g transform="matrix(1 0 0 1 1629.244998247 567.3913185411)" id="CmK90MYiZsr8bzFmg_2x2"  >
<path style="stroke: rgb(0,0,0); stroke-width: 1; stroke-dasharray: none; stroke-linecap: butt; stroke-dashoffset: 0; stroke-linejoin: miter; stroke-miterlimit: 4; fill: rgb(255,255,255); fill-opacity: 0; fill-rule: nonzero; opacity: 1;" vector-effect="non-scaling-stroke"  transform=" translate(0, 0)" d="M 52.25936 218.12834 L -52.25936 -218.12834" stroke-linecap="round" />
</g>
</svg>