<?xml version="1.0" encoding="UTF-8" standalone="no" ?>
<!DOCTYPE svg PUBLIC "-//W3C//DTD SVG 1.1//EN" "http://www.w3.org/Graphics/SVG/1.1/DTD/svg11.dtd">
<svg xmlns="http://www.w3.org/2000/svg" xmlns:xlink="http://www.w3.org/1999/xlink" version="1.1" width="1920" height="1920" viewBox="0 0 1920 1920" xml:space="preserve">
<desc>Created with Fabric.js 5.3.0</desc>
<defs>
</defs>
<g transform="matrix(1 0 0 1 778.7962644204 1160.7505238531)" id="-QZP9h43q7isgTxS8xzz1"  >
<path style="stroke: rgb(104,104,104); stroke-width: 0; stroke-dasharray: none; stroke-linecap: butt; stroke-dashoffset: 0; stroke-linejoin: miter; stroke-miterlimit: 4; fill: rgb(0,169,158); fill-rule: nonzero; opacity: 1;" vector-effect="non-scaling-stroke"  transform=" translate(0, 0)" d="M -254.08327 -51.6372 C -504.6382 -62.92393 -336.63152 -238.99651 -336.63152 -238.99651 C -336.63152 -238.99651 -27.865949999999998 -589.07579 72.1567 -502.09957 C 164.57692 -421.73416000000003 423.89797 238.54655999999994 388.45975 435.26137 C 385.54462 451.44302 380.63497 464.48789 373.47382999999996 473.81518 C 279.25713999999994 596.53113 -324.93382 423.26356 -240.13200999999998 312.36888999999996 C -187.34851999999998 243.34431999999998 -173.19527 -47.99345000000005 -254.08327999999997 -51.63720000000001 z" stroke-linecap="round" />
</g>
<g transform="matrix(0.8900100321 -0.4340868968 0.4340868968 0.8900100321 778.7962644204 1186.5277708106)" id="4IDeUiVcOPd13HcfKaEig"  >
<path style="stroke: rgb(104,104,104); stroke-width: 0; stroke-dasharray: none; stroke-linecap: butt; stroke-dashoffset: 0; stroke-linejoin: miter; stroke-miterlimit: 4; fill: rgb(65,227,222); fill-rule: nonzero; opacity: 1;" vector-effect="non-scaling-stroke"  transform=" translate(0, 0)" d="M -245.83159 -239.55149 C -263.91081 -246.06 -276.28789 -262.8199 -277.18972 -282.01379 C -278.09155000000004 -301.20768 -267.34047000000004 -319.05427 -249.95117000000002 -327.22927999999996 C -91.90518000000003 -401.52939999999995 247.26167999999998 -550.9049699999999 270.25681999999995 -424.43172999999996 C 290.74926999999997 -311.72326999999996 261.94363999999996 -83.43044999999995 238.06769999999995 82.47723000000002 C 231.83080999999996 125.81768000000002 200.95559999999995 441.54926 165.61951999999997 467.40762 C 124.36040999999997 497.60037 -12.170050000000032 406.42247000000003 -61.04758000000004 391.4257 C -155.80635000000004 362.35215 -206.66601000000003 213.26155 -208.25866000000005 132.03607 C -210.79031000000006 2.922149999999988 -105.38798000000006 -153.64884999999998 -161.08418000000006 -195.421 C -186.44818000000006 -214.444 -216.16428000000008 -228.87127999999998 -245.83159000000006 -239.55149 z" stroke-linecap="round" />
</g>
<g transform="matrix(0.5293479079 0.2814592752 -0.2032505293 0.3822586495 851.2470031202 1322.2574000673)" id="N1Kkflqtxp22bvuUkHzPt"  >
<path style="stroke: rgb(104,104,104); stroke-width: 0; stroke-dasharray: none; stroke-linecap: butt; stroke-dashoffset: 0; stroke-linejoin: miter; stroke-miterlimit: 4; fill: rgb(174,236,243); fill-rule: nonzero; opacity: 1;" vector-effect="non-scaling-stroke"  transform=" translate(0, 0)" d="M -253.26914 56.50279 C -297.37662 16.818109999999997 -322.52063999999996 -52.814960000000006 -318.98537999999996 -125.48973999999998 C -315.45011999999997 -198.16451999999998 -283.78928999999994 -262.49863 -236.23681999999997 -293.63295 L -177.48997999999997 -332.09664 L -177.48997999999997 -332.09664 C -120.45646999999997 -369.43854 -55.03195999999997 -373.78913 4.322960000000023 -344.1868 L 44.99817000000002 -323.90069 L 139.30925000000002 -194.20252 L 139.30925000000002 -194.20252 C 183.53539 -133.382 222.74578000000002 -65.94642999999999 256.2191 6.863619999999997 L 300.10859000000005 102.33057 L 300.10859000000005 102.33057 C 330.00858000000005 167.36802999999998 324.55707000000007 252.12717999999998 286.82747000000006 308.82333 C 249.09787000000006 365.51948 188.53888000000006 379.95407 139.29187000000007 343.98931 C 9.667810000000088 249.32574 -225.99563999999992 76.9579 -253.26911999999993 56.502790000000005 z" stroke-linecap="round" />
</g>
<g transform="matrix(1.0643136746 0 0 1.0643136746 891.9736989163 1391.2894002349)" id="aF0NMieURMzPr4gDDWl3F"  >
<path style="stroke: rgb(104,104,104); stroke-width: 0; stroke-dasharray: none; stroke-linecap: butt; stroke-dashoffset: 0; stroke-linejoin: miter; stroke-miterlimit: 4; fill: rgb(255,255,255); fill-rule: nonzero; opacity: 1;" vector-effect="non-scaling-stroke"  transform=" translate(0, 0)" d="M 0 -76.92308 C 42.46154 -76.92308 76.92308 -42.46154 76.92308 0 C 76.92308 42.46154 42.46154 76.92308 0 76.92308 C -42.46154 76.92308 -76.92308 42.46154 -76.92308 0 C -76.92308 -42.46154 -42.46154 -76.92308 0 -76.92308 z" stroke-linecap="round" />
</g>
<g transform="matrix(0.7838509215 0 0 0.7838509215 891.9736989163 1391.2894002349)" id="-jV4g3bxRWWVfscAn-tie"  >
<path style="stroke: rgb(104,104,104); stroke-width: 0; stroke-dasharray: none; stroke-linecap: butt; stroke-dashoffset: 0; stroke-linejoin: miter; stroke-miterlimit: 4; fill: rgb(0,0,0); fill-rule: nonzero; opacity: 1;" vector-effect="non-scaling-stroke"  transform=" translate(0, 0)" d="M 0 -76.92323 C 42.46162 -76.92323 76.92323 -42.46162 76.92323 0 C 76.92323 42.46162 42.46162 76.92323 0 76.92323 C -42.46162 76.92323 -76.92323 42.46162 -76.92323 0 C -76.92323 -42.46162 -42.46162 -76.92323 0 -76.92323 z" stroke-linecap="round" />
</g>
</svg>