<?xml version="1.0" encoding="UTF-8" standalone="no" ?>
<!DOCTYPE svg PUBLIC "-//W3C//DTD SVG 1.1//EN" "http://www.w3.org/Graphics/SVG/1.1/DTD/svg11.dtd">
<svg xmlns="http://www.w3.org/2000/svg" xmlns:xlink="http://www.w3.org/1999/xlink" version="1.1" width="1920" height="1920" viewBox="0 0 1920 1920" xml:space="preserve">
<desc>Created with Fabric.js 5.3.0</desc>
<defs>
</defs>
<g transform="matrix(1 0 0 1 864.2934357363 960)" id="5Sp1E9uQ7adQqQb7bzLt5"  >
<path style="stroke: rgb(104,104,104); stroke-width: 0; stroke-dasharray: none; stroke-linecap: butt; stroke-dashoffset: 0; stroke-linejoin: miter; stroke-miterlimit: 4; fill: rgb(82,181,25); fill-rule: nonzero; opacity: 1;" vector-effect="non-scaling-stroke"  transform=" translate(0, 0)" d="M -247.09158 -211.40833 C 339.99789 -244.02441 426.97411 -139.65295 426.97411 -139.65295 C 426.97411 -139.65295 700.94919 203.90311 337.82349 216.94953999999998 C -25.302220000000034 229.99597 -312.32374000000004 73.43877999999998 -312.32374000000004 73.43877999999998 C -312.32374000000004 73.43877999999998 -834.18104 -178.79225000000002 -247.09158000000005 -211.40833 z" stroke-linecap="round" />
</g>
<g transform="matrix(1 0 0 1 931.3490512409 950.3525525942)" id="2w1pP6CikMI7n80_Q6Ilp"  >
<path style="stroke: rgb(104,104,104); stroke-width: 0; stroke-dasharray: none; stroke-linecap: butt; stroke-dashoffset: 0; stroke-linejoin: miter; stroke-miterlimit: 4; fill: rgb(153,223,81); fill-rule: nonzero; opacity: 1;" vector-effect="non-scaling-stroke"  transform=" translate(0, 0)" d="M -371.57939 -50.37631 C -362.0048 -12.962159999999997 -334.07722 17.02456 -297.43754 29.232149999999997 C -101.63841000000002 94.46839 258.07714 214.40531 313.49806 162.94303 C 374.38141 106.40849 424.39274 -21.881429999999995 313.49806 -89.28800000000001 C 202.60338000000002 -156.69457 -251.84735 -206.70589 -336.64917 -152.34576 C -392.66694 -116.43693000000002 -380.39775000000003 -84.83534000000002 -371.5794 -50.37631000000002 z" stroke-linecap="round" />
</g>
<g transform="matrix(1.4571154233 0.2832345464 -0.1908089954 0.9816271834 864.2934357363 904.2225825679)" id="jC4YjnW199fxrGPEfYIVa"  >
<path style="stroke: rgb(104,104,104); stroke-width: 0; stroke-dasharray: none; stroke-linecap: butt; stroke-dashoffset: 0; stroke-linejoin: miter; stroke-miterlimit: 4; fill: rgb(110,218,48); fill-rule: nonzero; opacity: 1;" vector-effect="non-scaling-stroke"  transform=" translate(0, 0)" d="M -104.7829 -46.22963 C -119.10239 -38.47159 -128.58428 -18.17834 -128.46179 4.448140000000002 C -128.33929 27.074620000000003 -118.6389 47.13904 -104.23727000000001 54.55447 C -37.81994 88.75288 91.89708999999998 144.67771 106.69644999999998 98.79969 C 128.4405 31.393119999999996 148.01014999999998 -96.89680000000001 91.47560999999999 -114.29204000000001 C 53.78447999999999 -125.88931000000001 -42.30496000000002 -80.07908 -104.78290000000001 -46.229630000000014 z" stroke-linecap="round" />
</g>
<g transform="matrix(1.0643136746 0 0 1.0643136746 891.9736989163 904.2225825679)" id="aF0NMieURMzPr4gDDWl3F"  >
<path style="stroke: rgb(104,104,104); stroke-width: 0; stroke-dasharray: none; stroke-linecap: butt; stroke-dashoffset: 0; stroke-linejoin: miter; stroke-miterlimit: 4; fill: rgb(255,255,255); fill-rule: nonzero; opacity: 1;" vector-effect="non-scaling-stroke"  transform=" translate(0, 0)" d="M 0 -76.92308 C 42.46154 -76.92308 76.92308 -42.46154 76.92308 0 C 76.92308 42.46154 42.46154 76.92308 0 76.92308 C -42.46154 76.92308 -76.92308 42.46154 -76.92308 0 C -76.92308 -42.46154 -42.46154 -76.92308 0 -76.92308 z" stroke-linecap="round" />
</g>
<g transform="matrix(0.7838509215 0 0 0.7838509215 891.9736989163 904.2225825679)" id="-jV4g3bxRWWVfscAn-tie"  >
<path style="stroke: rgb(104,104,104); stroke-width: 0; stroke-dasharray: none; stroke-linecap: butt; stroke-dashoffset: 0; stroke-linejoin: miter; stroke-miterlimit: 4; fill: rgb(0,0,0); fill-rule: nonzero; opacity: 1;" vector-effect="non-scaling-stroke"  transform=" translate(0, 0)" d="M 0 -76.92323 C 42.46162 -76.92323 76.92323 -42.46162 76.92323 0 C 76.92323 42.46162 42.46162 76.92323 0 76.92323 C -42.46162 76.92323 -76.92323 42.46162 -76.92323 0 C -76.92323 -42.46162 -42.46162 -76.92323 0 -76.92323 z" stroke-linecap="round" />
</g>
</svg>