<?xml version="1.0" encoding="UTF-8" standalone="no" ?>
<!DOCTYPE svg PUBLIC "-//W3C//DTD SVG 1.1//EN" "http://www.w3.org/Graphics/SVG/1.1/DTD/svg11.dtd">
<svg xmlns="http://www.w3.org/2000/svg" xmlns:xlink="http://www.w3.org/1999/xlink" version="1.1" width="1920" height="1920" viewBox="0 0 1920 1920" xml:space="preserve">
<desc>Created with Fabric.js 5.3.0</desc>
<defs>
</defs>
<g transform="matrix(-1 0 0 1 927.63055427 1046.2737771684)" id="YYQ_t01H41Su6EAc6HRqb"  >
<path style="stroke: rgb(104,104,104); stroke-width: 0; stroke-dasharray: none; stroke-linecap: butt; stroke-dashoffset: 0; stroke-linejoin: miter; stroke-miterlimit: 4; fill: rgb(252,118,92); fill-rule: nonzero; opacity: 1;" vector-effect="non-scaling-stroke"  transform=" translate(0, 0)" d="M 325.42775 -201.44987 C 290.23654 -338.78309 282.80494 -351.93744000000004 199.19563 -462.35539000000006 C 115.58632999999999 -572.7733400000001 27.75963999999999 -591.46434 -99.80466999999999 -522.7758600000001 C -139.60163999999997 -501.34672000000006 -253.17426999999998 -444.8819800000001 -310.35605 -384.5640900000001 L -310.35605 -384.5640900000001 C -376.45056999999997 -314.8446400000001 -391.04688 -210.87616000000008 -346.70509 -125.65237000000008 C -296.33725 -28.846670000000074 -203.77211 174.05732999999992 -253.73523 191.69136999999995 C -327.66501 217.78423999999995 -290.88637 617.59581 -110.41072 556.71246 C -16.046390000000002 524.87871 189.47353 474.62028 286.98897999999997 395.93352999999996 C 375.97582 324.12865 372.11150999999995 199.26712999999995 372.11150999999995 199.26712999999995 C 372.11150999999995 199.26712999999995 365.21941999999996 -46.16345000000004 325.4277599999999 -201.44986000000006 z" stroke-linecap="round" />
</g>
<g transform="matrix(-1 0 0 1 930.2764798798 1024.6801871509)" id="b_bEueVgLyhxQbnbsIeeO"  >
<path style="stroke: rgb(104,104,104); stroke-width: 0; stroke-dasharray: none; stroke-linecap: butt; stroke-dashoffset: 0; stroke-linejoin: miter; stroke-miterlimit: 4; fill: rgb(239,161,143); fill-rule: nonzero; opacity: 1;" vector-effect="non-scaling-stroke"  transform=" translate(0, 0)" d="M -194.93253 141.72386 C -180.62087000000002 180.96382 -183.40258 224.40484 -202.60222000000002 261.49894 C -225.27054 305.29459 -251.75825000000003 346.54034 -253.63677 401.95206 C -258.73843 552.43857 179.00383 556.10925 260.13591 357.99604 C 341.26799000000005 159.88282999999998 294.09817000000004 -237.65862000000004 260.13591 -286.71522000000004 C 226.17365 -335.77182000000005 175.20166 -440.73229000000003 112.93751000000003 -474.69455000000005 C 50.67336000000003 -508.65681000000006 6.44825000000003 -529.0208600000001 -59.589489999999955 -489.39822000000004 C -125.62722999999995 -449.77558000000005 -168.59642999999994 -423.26858000000004 -177.58260999999996 -413.37378 C -178.20945999999995 -412.68354 -185.82814999999997 -406.63799 -190.18446999999995 -403.73321 L -190.18446999999995 -403.73321 C -292.56226999999996 -335.46810999999997 -332.41693 -204.36181 -285.35230999999993 -90.66809999999998 L -242.24413999999993 13.469450000000023 z" stroke-linecap="round" />
</g>
<g transform="matrix(0.854220426 0.2941316805 -0.2111437664 0.6132060231 909.0140275273 1046.2737771684)" id="qMs0uqNRJEMBtuWHz9ibe"  >
<path style="stroke: rgb(104,104,104); stroke-width: 0; stroke-dasharray: none; stroke-linecap: butt; stroke-dashoffset: 0; stroke-linejoin: miter; stroke-miterlimit: 4; fill: rgb(241,152,126); fill-rule: nonzero; opacity: 1;" vector-effect="non-scaling-stroke"  transform=" translate(0, 0)" d="M -210.22166 -227.59631 C -209.31551000000002 -57.07392999999999 -231.37602 140.34619 -223.55537 301.95766000000003 C -215.73472 463.56914000000006 45.197280000000006 443.41752 148.83482 407.39166 C 150.86838 406.68477 154.08454 397.45758 156.67022 392.56468 L 156.67022 392.56468 C 235.47071 243.44995 247.29304000000002 45.23520000000002 187.23872 -119.95097000000004 C 146.93586 -230.80852000000004 67.80603 -419.63653000000005 33.35264000000001 -429.53272000000004 C -28.583099999999995 -447.32277000000005 -192.62152999999998 -379.90953 -192.62152999999998 -353.34703 C -192.62152999999998 -353.09077 -210.60825999999997 -300.34688 -210.22165999999999 -227.59631000000002 z" stroke-linecap="round" />
</g>
<g transform="matrix(1 0 0 1 923.1514010225 1035.6286684767)" id="DtyOfMZUSe1X0fD8XTKAR"  >
<path style="stroke: rgb(104,104,104); stroke-width: 0; stroke-dasharray: none; stroke-linecap: butt; stroke-dashoffset: 0; stroke-linejoin: miter; stroke-miterlimit: 4; fill: rgb(255,255,255); fill-opacity: 0; fill-rule: nonzero; opacity: 1;" vector-effect="non-scaling-stroke"  transform=" translate(0, 0)" d="M 289.27428 -190.80476 C 254.08306999999996 -328.13797999999997 246.65146999999996 -341.29233 163.04215999999997 -451.71028 C 79.43285999999996 -562.12823 -8.393830000000037 -580.8192300000001 -135.95814000000001 -512.13075 C -200.70331000000002 -477.26797000000005 -206.89804 -468.58191000000005 -217.57465000000002 -451.71028 C -234.86603000000002 -424.38572 -228.24369000000002 -391.64199 -234.78830000000002 -311.31411 C -243.07327 -209.62532000000004 -225.48166000000003 -139.92519000000001 -203.5199 -58.924240000000026 L -203.5199 -58.924240000000026 C -191.31517 -13.909850000000027 -191.09854 33.514199999999974 -202.89153000000002 78.63820999999999 C -220.41556000000003 145.69111999999998 -250.09676000000002 242.18489 -305.65534 261.7938 C -379.58512 287.88667 -316.43378 605.5136399999999 -135.95813 544.63028 C -41.593800000000016 512.79653 145.74429999999998 477.68960999999996 243.25974999999997 399.00285999999994 C 332.24658999999997 327.1979799999999 335.95804 209.91221999999993 335.95804 209.91221999999993 C 335.95804 209.91221999999993 329.06595 -35.51836000000006 289.27428999999995 -190.80477000000008 z" stroke-linecap="round" />
</g>
<g transform="matrix(1.0643136746 0 0 1.0643136746 878.1297173357 1071.1624802808)" id="aF0NMieURMzPr4gDDWl3F"  >
<path style="stroke: rgb(104,104,104); stroke-width: 0; stroke-dasharray: none; stroke-linecap: butt; stroke-dashoffset: 0; stroke-linejoin: miter; stroke-miterlimit: 4; fill: rgb(255,255,255); fill-rule: nonzero; opacity: 1;" vector-effect="non-scaling-stroke"  transform=" translate(0, 0)" d="M 0 -76.92308 C 42.46154 -76.92308 76.92308 -42.46154 76.92308 0 C 76.92308 42.46154 42.46154 76.92308 0 76.92308 C -42.46154 76.92308 -76.92308 42.46154 -76.92308 0 C -76.92308 -42.46154 -42.46154 -76.92308 0 -76.92308 z" stroke-linecap="round" />
</g>
<g transform="matrix(0.7838509215 0 0 0.7838509215 878.1297173357 1071.1624802808)" id="-jV4g3bxRWWVfscAn-tie"  >
<path style="stroke: rgb(104,104,104); stroke-width: 0; stroke-dasharray: none; stroke-linecap: butt; stroke-dashoffset: 0; stroke-linejoin: miter; stroke-miterlimit: 4; fill: rgb(0,0,0); fill-rule: nonzero; opacity: 1;" vector-effect="non-scaling-stroke"  transform=" translate(0, 0)" d="M 0 -76.92323 C 42.46162 -76.92323 76.92323 -42.46162 76.92323 0 C 76.92323 42.46162 42.46162 76.92323 0 76.92323 C -42.46162 76.92323 -76.92323 42.46162 -76.92323 0 C -76.92323 -42.46162 -42.46162 -76.92323 0 -76.92323 z" stroke-linecap="round" />
</g>
</svg>