<?xml version="1.0" encoding="UTF-8" standalone="no" ?>
<!DOCTYPE svg PUBLIC "-//W3C//DTD SVG 1.1//EN" "http://www.w3.org/Graphics/SVG/1.1/DTD/svg11.dtd">
<svg xmlns="http://www.w3.org/2000/svg" xmlns:xlink="http://www.w3.org/1999/xlink" version="1.1" width="1920" height="1920" viewBox="0 0 1920 1920" xml:space="preserve">
<desc>Created with Fabric.js 5.3.0</desc>
<defs>
</defs>
<g transform="matrix(1 0 0 1 850.7419137173 1174.6067002836)" id="-QZP9h43q7isgTxS8xzz1"  >
<path style="stroke: rgb(104,104,104); stroke-width: 0; stroke-dasharray: none; stroke-linecap: butt; stroke-dashoffset: 0; stroke-linejoin: miter; stroke-miterlimit: 4; fill: rgb(127,0,169); fill-rule: nonzero; opacity: 1;" vector-effect="non-scaling-stroke"  transform=" translate(0, 0)" d="M -182.39182 -36.38688 C -182.78089 -65.5484 -261.30081 -90.37631999999999 -342.18881999999996 -94.02008000000001 C -592.74375 -105.30681000000001 -268.17987999999997 -253.11212 -268.17987999999997 -253.11212 C -268.17987999999997 -253.11212 299.33994 -529.26161 399.36259 -442.28539 C 499.38524 -355.30917 379.58497 308.71636 285.36829 431.43231000000003 C 191.1516 554.14826 -339.90318 237.36993000000004 -255.10136999999997 126.47526000000005 C -202.31787999999997 57.45069000000005 -181.75041999999996 11.687070000000048 -182.39182 -36.38687999999996 z" stroke-linecap="round" />
</g>
<g transform="matrix(1.0951663629 0 0 1.0951663629 919.6892505526 1144.3215525062)" id="4IDeUiVcOPd13HcfKaEig"  >
<path style="stroke: rgb(104,104,104); stroke-width: 0; stroke-dasharray: none; stroke-linecap: butt; stroke-dashoffset: 0; stroke-linejoin: miter; stroke-miterlimit: 4; fill: rgb(187,65,227); fill-rule: nonzero; opacity: 1;" vector-effect="non-scaling-stroke"  transform=" translate(0, 0)" d="M -278.89335 -87.52838 C -297.49692 -94.21427 -310.37641 -111.28106 -311.70306 -131.00501 C -313.02970999999997 -150.72895 -302.55174 -169.36679 -285.01108999999997 -178.48377 C -110.29139999999995 -269.29652 269.0443 -457.61625 292.51243 -328.5415 C 292.51243 -328.5415 292.51243 -328.5415 292.51243 -328.5415 L 292.51243 -328.5415 C 317.41827 -235.55969 318.23656 -137.76713999999998 294.89017 -44.381579999999985 L 222.11262 246.72862000000003 L 222.11262 246.72862000000003 C 211.09995999999998 290.77924 182.50988 328.38918 143.01128999999997 350.78555000000006 C 103.51269999999997 373.18192000000005 56.559469999999976 378.4063100000001 13.103899999999982 365.24009000000007 C -84.37264000000002 335.70653000000004 -238.76238 272.64578000000006 -240.39896000000002 189.18002000000007 C -242.93061000000003 60.06610000000006 -137.57086 -1.2437999999999363 -193.26706000000001 -43.01595999999992 C -218.88483000000002 -62.22928999999992 -248.92339 -76.75756999999993 -278.89336000000003 -87.52838999999992 z" stroke-linecap="round" />
</g>
<g transform="matrix(0.8300927886 0 0 0.8662501761 959.1783076231 1144.3215525062)" id="N1Kkflqtxp22bvuUkHzPt"  >
<path style="stroke: rgb(104,104,104); stroke-width: 0; stroke-dasharray: none; stroke-linecap: butt; stroke-dashoffset: 0; stroke-linejoin: miter; stroke-miterlimit: 4; fill: rgb(216,96,255); fill-rule: nonzero; opacity: 1;" vector-effect="non-scaling-stroke"  transform=" translate(0, 0)" d="M -196.70622 -123.88906 C -242.09512 -133.10917 -275.74107000000004 -169.85102 -279.38424 -214.17462 C -283.02741 -258.49823000000004 -255.79908999999998 -299.83465 -212.47623 -315.7504 L -196.94752 -321.45527000000004 L -196.94752 -321.45527000000004 C -77.36187 -365.38809000000003 51.203750000000014 -382.23407000000003 178.70738999999998 -370.67741000000007 L 187.28882 -369.89961000000005 L 187.28882 -369.89961000000005 C 196.76156999999998 -369.04102000000006 205.91848 -366.18343000000004 214.10224 -361.53197000000006 L 223.30453 -356.30159000000003 L 223.30453 -356.30159000000003 C 290.82358 -317.92526000000004 338.97872 -254.70842000000005 356.54295 -181.38960000000003 C 374.10717 -108.07078000000003 359.54548 -31.05758000000003 316.25281 31.69492999999997 L 139.51424 287.87663 L 139.51424 287.87663 C 90.29405 359.22105999999997 -2.152729999999991 390.88212 -87.41322 365.59445999999997 C -193.48792 334.13345999999996 -362.02823 271.77914999999996 -363.79481999999996 181.68346999999997 C -366.32647 52.569549999999964 -141.01000999999997 -82.11692000000002 -196.70620999999997 -123.88907000000003 z" stroke-linecap="round" />
</g>
<g transform="matrix(1.0643136746 0 0 1.0643136746 961.8738090097 1092.7364176194)" id="aF0NMieURMzPr4gDDWl3F"  >
<path style="stroke: rgb(104,104,104); stroke-width: 0; stroke-dasharray: none; stroke-linecap: butt; stroke-dashoffset: 0; stroke-linejoin: miter; stroke-miterlimit: 4; fill: rgb(255,255,255); fill-rule: nonzero; opacity: 1;" vector-effect="non-scaling-stroke"  transform=" translate(0, 0)" d="M 0 -76.92308 C 42.46154 -76.92308 76.92308 -42.46154 76.92308 0 C 76.92308 42.46154 42.46154 76.92308 0 76.92308 C -42.46154 76.92308 -76.92308 42.46154 -76.92308 0 C -76.92308 -42.46154 -42.46154 -76.92308 0 -76.92308 z" stroke-linecap="round" />
</g>
<g transform="matrix(0.7838509215 0 0 0.7838509215 961.8738090097 1097.2119290328)" id="-jV4g3bxRWWVfscAn-tie"  >
<path style="stroke: rgb(104,104,104); stroke-width: 0; stroke-dasharray: none; stroke-linecap: butt; stroke-dashoffset: 0; stroke-linejoin: miter; stroke-miterlimit: 4; fill: rgb(0,0,0); fill-rule: nonzero; opacity: 1;" vector-effect="non-scaling-stroke"  transform=" translate(0, 0)" d="M 0 -76.92323 C 42.46162 -76.92323 76.92323 -42.46162 76.92323 0 C 76.92323 42.46162 42.46162 76.92323 0 76.92323 C -42.46162 76.92323 -76.92323 42.46162 -76.92323 0 C -76.92323 -42.46162 -42.46162 -76.92323 0 -76.92323 z" stroke-linecap="round" />
</g>
</svg>