<?xml version="1.0" encoding="UTF-8" standalone="no" ?>
<!DOCTYPE svg PUBLIC "-//W3C//DTD SVG 1.1//EN" "http://www.w3.org/Graphics/SVG/1.1/DTD/svg11.dtd">
<svg xmlns="http://www.w3.org/2000/svg" xmlns:xlink="http://www.w3.org/1999/xlink" version="1.1" width="1920" height="1920" viewBox="0 0 1920 1920" xml:space="preserve">
<desc>Created with Fabric.js 5.3.0</desc>
<defs>
</defs>
<g transform="matrix(1 0 0 1.0205590967 877.4029240386 831.2750266649)" id="GnXYEwMJEcOMkUtzs3T3t"  >
<path style="stroke: rgb(104,104,104); stroke-width: 0; stroke-dasharray: none; stroke-linecap: butt; stroke-dashoffset: 0; stroke-linejoin: miter; stroke-miterlimit: 4; fill: rgb(250,31,0); fill-rule: nonzero; opacity: 1;" vector-effect="non-scaling-stroke"  transform=" translate(0, 0)" d="M -260.13451 202.43604 C -242.46203999999997 278.4696 -196.80831999999998 345.45286999999996 -131.90286999999998 390.57785 C -85.16492999999997 423.07202 -39.06994999999998 462.40968 41.28338000000002 403.13264000000004 C 173.92211000000003 305.2844 380.49063 659.71248 371.79301000000004 155.25042000000005 C 363.09539000000007 -349.21164 476.16447000000005 -320.94436999999994 189.14295000000004 -368.7812899999999 C -97.87856999999997 -416.6182099999999 -426.2137899999999 -507.9432399999999 -382.72568 -323.1187799999999 C -347.21407 -172.1944299999999 -300.45265 28.972330000000113 -260.13451 202.43604000000005 z" stroke-linecap="round" />
</g>
<g transform="matrix(1.0372401713 0 0 1.0372401713 934.4254957827 871.9851955697)" id="xwhmkU6WkAgXkRcIr2UgY"  >
<path style="stroke: rgb(104,104,104); stroke-width: 0; stroke-dasharray: none; stroke-linecap: butt; stroke-dashoffset: 0; stroke-linejoin: miter; stroke-miterlimit: 4; fill: rgb(211,88,70); fill-rule: nonzero; opacity: 1;" vector-effect="non-scaling-stroke"  transform=" translate(0, 0)" d="M -237.62657 -46.28721 C -242.75168 -88.85377 -244.12085 -131.78878 -241.71821999999997 -174.59539999999998 C -240.00464999999997 -205.12534 -241.85958999999997 -253.92355999999998 -231.24311999999998 -266.66197 C -212.59646999999998 -289.03557 -109.53629999999998 -277.53643 -37.94609999999997 -266.66197 C 133.83193000000003 -240.5691 265.65614000000005 -175.49308 239.56327000000002 -71.12162000000001 C 213.4704 33.24983999999999 248.29377000000002 299.55369 85.21336000000002 247.36795 C -77.86704999999998 195.18222 -203.85929999999996 340.86738 -208.20810999999998 247.36795 C -211.77768999999998 170.622 -225.98450999999997 50.40571 -237.62655999999998 -46.28721999999999 z" stroke-linecap="round" />
</g>
<g transform="matrix(1 0 0 1 896.9420084183 829.7079149027)" id="Izp3xj6UMKZsJ77gIfq2h"  >
<path style="stroke: rgb(104,104,104); stroke-width: 0; stroke-dasharray: none; stroke-linecap: butt; stroke-dashoffset: 0; stroke-linejoin: miter; stroke-miterlimit: 4; fill: rgb(236,124,107); fill-rule: nonzero; opacity: 1;" vector-effect="non-scaling-stroke"  transform=" translate(0, 0)" d="M -179.00515 -184.32023 C -182.11723999999998 -193.32624 -179.52864 -203.32028000000003 -172.43579999999997 -209.68307000000001 C -165.34296999999998 -216.04586 -155.12751999999998 -217.53798 -146.51107999999996 -213.46976 L 109.78090000000006 -92.48721 L 109.78090000000006 -92.48721 C 136.24514000000005 -79.99477 155.33545000000007 -55.83415 161.36849000000007 -27.198170000000005 C 178.30400000000006 53.18674999999999 215.91966000000008 238.24732 93.08244000000006 212.19093999999998 C -50.42831999999994 181.74926 -154.79977999999994 257.85344999999995 -154.79977999999994 177.40044999999998 C -154.79977999999994 96.94744999999998 -120.00928999999994 16.494449999999972 -133.05572999999993 -40.04009000000002 C -142.53751999999992 -81.12785000000002 -162.68502999999993 -137.09180000000003 -179.00513999999993 -184.32023 z" stroke-linecap="round" />
</g>
<g transform="matrix(1.0643136746 0 0 1.0643136746 891.9736989163 904.2225825679)" id="aF0NMieURMzPr4gDDWl3F"  >
<path style="stroke: rgb(104,104,104); stroke-width: 0; stroke-dasharray: none; stroke-linecap: butt; stroke-dashoffset: 0; stroke-linejoin: miter; stroke-miterlimit: 4; fill: rgb(255,255,255); fill-rule: nonzero; opacity: 1;" vector-effect="non-scaling-stroke"  transform=" translate(0, 0)" d="M 0 -76.92308 C 42.46154 -76.92308 76.92308 -42.46154 76.92308 0 C 76.92308 42.46154 42.46154 76.92308 0 76.92308 C -42.46154 76.92308 -76.92308 42.46154 -76.92308 0 C -76.92308 -42.46154 -42.46154 -76.92308 0 -76.92308 z" stroke-linecap="round" />
</g>
<g transform="matrix(0.7838509215 0 0 0.7838509215 891.9736989163 904.2225825679)" id="-jV4g3bxRWWVfscAn-tie"  >
<path style="stroke: rgb(104,104,104); stroke-width: 0; stroke-dasharray: none; stroke-linecap: butt; stroke-dashoffset: 0; stroke-linejoin: miter; stroke-miterlimit: 4; fill: rgb(0,0,0); fill-rule: nonzero; opacity: 1;" vector-effect="non-scaling-stroke"  transform=" translate(0, 0)" d="M 0 -76.92323 C 42.46162 -76.92323 76.92323 -42.46162 76.92323 0 C 76.92323 42.46162 42.46162 76.92323 0 76.92323 C -42.46162 76.92323 -76.92323 42.46162 -76.92323 0 C -76.92323 -42.46162 -42.46162 -76.92323 0 -76.92323 z" stroke-linecap="round" />
</g>
</svg>