<?xml version="1.0" encoding="UTF-8" standalone="no" ?>
<!DOCTYPE svg PUBLIC "-//W3C//DTD SVG 1.1//EN" "http://www.w3.org/Graphics/SVG/1.1/DTD/svg11.dtd">
<svg xmlns="http://www.w3.org/2000/svg" xmlns:xlink="http://www.w3.org/1999/xlink" version="1.1" width="1920" height="1920" viewBox="0 0 1920 1920" xml:space="preserve">
<desc>Created with Fabric.js 5.3.0</desc>
<defs>
</defs>
<g transform="matrix(1 0 0 1 847.5658707817 926.6820111841)" id="5P5v_d9LA-kK301ouLOHO"  >
<path style="stroke: rgb(104,104,104); stroke-width: 0; stroke-dasharray: none; stroke-linecap: butt; stroke-dashoffset: 0; stroke-linejoin: miter; stroke-miterlimit: 4; fill: rgb(234,229,229); fill-rule: nonzero; opacity: 1;" vector-effect="non-scaling-stroke"  transform=" translate(0, 0)" d="M -333.31899 69.19568 C -333.31899 69.19568 310.30502 791.09828 453.81578 367.08921999999995 C 597.32654 -56.91984000000002 244.45313000000002 -496.14974000000007 44.40782999999999 -500.49855 C -155.63747 -504.84736000000004 -607.29407 -198.25619 -457.26009 -52.57103000000001 C -307.22610999999995 93.11412999999999 -333.31898 69.19566999999999 -333.31898 69.19566999999999 z" stroke-linecap="round" />
</g>
<g transform="matrix(1 0 0 1 841.9378498701 1003.0120864766)" id="D6c0KG69IXP09XdyuPi2Y"  >
<path style="stroke: rgb(104,104,104); stroke-width: 0; stroke-dasharray: none; stroke-linecap: butt; stroke-dashoffset: 0; stroke-linejoin: miter; stroke-miterlimit: 4; fill: rgb(223,218,218); fill-rule: nonzero; opacity: 1;" vector-effect="non-scaling-stroke"  transform=" translate(0, 0)" d="M -254.76659 -264.82837 C -289.01819 -248.08059 -313.02466 -215.76671 -319.16993 -178.13831 C -325.3152 -140.50992 -312.83651000000003 -102.23746999999999 -285.69275000000005 -75.46292999999999 C -116.81412000000006 91.11852 282.84174999999993 471.19161 309.40981999999997 327.72405000000003 C 342.0259 151.59721000000005 313.75863 -365.9112799999999 94.14367999999996 -359.38806999999997 C -56.979460000000046 -354.89925999999997 -147.59794000000005 -317.22992 -254.76660000000004 -264.82836999999995 z" stroke-linecap="round" />
</g>
<g transform="matrix(1 0 0 1 860.5542703273 1003.0120864766)" id="-CeFVsXLSWUl9RdG0xFzO"  >
<path style="stroke: rgb(104,104,104); stroke-width: 0; stroke-dasharray: none; stroke-linecap: butt; stroke-dashoffset: 0; stroke-linejoin: miter; stroke-miterlimit: 4; fill: rgb(211,199,199); fill-rule: nonzero; opacity: 1;" vector-effect="non-scaling-stroke"  transform=" translate(0, 0)" d="M -163.35187 -186.87634 C -183.42534 -177.05017 -197.69385 -158.33817 -201.85703999999998 -136.3799 C -206.02022999999997 -114.42164 -199.59115999999997 -91.78546 -184.50746999999998 -75.29363999999998 C -73.86654999999999 45.67605000000002 166.66581 303.872 188.59635 252.70074 C 212.43738 197.07168 216.31017 -174.41852 125.57628 -246.41723000000002 C 117.00626 -253.21767000000003 107.59224 -257.34627 97.27132 -258.28454 C 8.426609999999997 -266.36133 -83.25764999999998 -226.08327 -163.35187000000002 -186.87634 z" stroke-linecap="round" />
</g>
<g transform="matrix(1.0643136746 0 0 1.0643136746 891.9736989163 904.2225825679)" id="aF0NMieURMzPr4gDDWl3F"  >
<path style="stroke: rgb(104,104,104); stroke-width: 0; stroke-dasharray: none; stroke-linecap: butt; stroke-dashoffset: 0; stroke-linejoin: miter; stroke-miterlimit: 4; fill: rgb(255,255,255); fill-rule: nonzero; opacity: 1;" vector-effect="non-scaling-stroke"  transform=" translate(0, 0)" d="M 0 -76.92308 C 42.46154 -76.92308 76.92308 -42.46154 76.92308 0 C 76.92308 42.46154 42.46154 76.92308 0 76.92308 C -42.46154 76.92308 -76.92308 42.46154 -76.92308 0 C -76.92308 -42.46154 -42.46154 -76.92308 0 -76.92308 z" stroke-linecap="round" />
</g>
<g transform="matrix(0.7838509215 0 0 0.7838509215 891.9736989163 904.2225825679)" id="-jV4g3bxRWWVfscAn-tie"  >
<path style="stroke: rgb(104,104,104); stroke-width: 0; stroke-dasharray: none; stroke-linecap: butt; stroke-dashoffset: 0; stroke-linejoin: miter; stroke-miterlimit: 4; fill: rgb(0,0,0); fill-rule: nonzero; opacity: 1;" vector-effect="non-scaling-stroke"  transform=" translate(0, 0)" d="M 0 -76.92323 C 42.46162 -76.92323 76.92323 -42.46162 76.92323 0 C 76.92323 42.46162 42.46162 76.92323 0 76.92323 C -42.46162 76.92323 -76.92323 42.46162 -76.92323 0 C -76.92323 -42.46162 -42.46162 -76.92323 0 -76.92323 z" stroke-linecap="round" />
</g>
</svg>