<?xml version="1.0" encoding="UTF-8" standalone="no" ?>
<!DOCTYPE svg PUBLIC "-//W3C//DTD SVG 1.1//EN" "http://www.w3.org/Graphics/SVG/1.1/DTD/svg11.dtd">
<svg xmlns="http://www.w3.org/2000/svg" xmlns:xlink="http://www.w3.org/1999/xlink" version="1.1" width="1920" height="1920" viewBox="0 0 1920 1920" xml:space="preserve">
<desc>Created with Fabric.js 5.3.0</desc>
<defs>
</defs>
<g transform="matrix(1 0 0 1 923.1514010225 1038.1286724173)" id="YYQ_t01H41Su6EAc6HRqb"  >
<path style="stroke: rgb(104,104,104); stroke-width: 0; stroke-dasharray: none; stroke-linecap: butt; stroke-dashoffset: 0; stroke-linejoin: miter; stroke-miterlimit: 4; fill: rgb(249,180,44); fill-rule: nonzero; opacity: 1;" vector-effect="non-scaling-stroke"  transform=" translate(-0.0000129051, 0.0000084953)" d="M 289.27428 -190.80476 C 254.08306999999996 -328.13797999999997 246.65146999999996 -341.29233 163.04215999999997 -451.71028 C 79.43285999999996 -562.12823 -8.393830000000037 -580.8192300000001 -135.95814000000001 -512.13075 C -200.70331000000002 -477.26797000000005 -206.89804 -468.58191000000005 -217.57465000000002 -451.71028 C -234.86603000000002 -424.38572 -228.24369000000002 -391.64199 -234.78830000000002 -311.31411 C -243.07327 -209.62532000000004 -225.48166000000003 -139.92519000000001 -203.5199 -58.924240000000026 L -203.5199 -58.924240000000026 C -191.31517 -13.909850000000027 -191.09854 33.514199999999974 -202.89153000000002 78.63820999999999 C -220.41556000000003 145.69111999999998 -250.09676000000002 242.18489 -305.65534 261.7938 C -379.58512 287.88667 -316.43378 605.5136399999999 -135.95813 544.63028 C -41.593800000000016 512.79653 145.74429999999998 477.68960999999996 243.25974999999997 399.00285999999994 C 332.24658999999997 327.1979799999999 335.95804 209.91221999999993 335.95804 209.91221999999993 C 335.95804 209.91221999999993 329.06595 -35.51836000000006 289.27428999999995 -190.80477000000008 z" stroke-linecap="round" />
</g>
<g transform="matrix(1 0 0 1 859.7082823713 1001.7435593638)" id="4J8M6QjvsrgN0eMhe37LK"  >
<path style="stroke: rgb(104,104,104); stroke-width: 0; stroke-dasharray: none; stroke-linecap: butt; stroke-dashoffset: 0; stroke-linejoin: miter; stroke-miterlimit: 4; fill: rgb(255,231,64); fill-rule: nonzero; opacity: 1;" vector-effect="non-scaling-stroke"  transform=" translate(0, 0)" d="M -167.15776 -301.72744 C -167.15776 -301.72744 -164.96227 -235.39197000000001 -175.56146999999999 -195.18017 C -176.38869 -192.0418 -173.61461999999997 -189.76269 -173.01740999999998 -186.3538 C -171.87048 -179.80715 -171.67802999999998 -171.92333000000002 -170.82462999999998 -165.63077 C -167.00151999999997 -137.44126 -157.02875999999998 -108.06437000000001 -152.64497999999998 -68.49248000000001 C -149.20640999999998 -37.45282000000002 -133.02585999999997 -6.276890000000016 -131.72972999999996 23.55661999999998 C -129.14822999999996 82.97584999999998 -143.88965999999996 132.43422999999999 -143.88965999999996 132.43422999999999 C -143.88965999999996 132.43422999999999 -158.46559999999997 194.82003999999998 -184.75788999999997 235.63288999999997 C -191.73136999999997 246.45763999999997 -187.58587999999997 260.19109 -194.85902999999996 267.60992 C -213.37162999999995 286.49332 -231.35308999999995 279.91696 -212.23190999999997 276.15295 C -13.79440999999997 237.09044999999998 148.20282000000003 515.5862099999999 213.82782000000003 285.89871 C 279.45282000000003 56.211209999999994 -167.15776 -403.16379 -167.15776 -376.60129 C -167.15776 -368.59907 -167.15776 -301.72743 -167.15776 -301.72743 z" stroke-linecap="round" />
</g>
<g transform="matrix(1 0 0 1 882.8495895759 996.6963063063)" id="b_bEueVgLyhxQbnbsIeeO"  >
<path style="stroke: rgb(104,104,104); stroke-width: 0; stroke-dasharray: none; stroke-linecap: butt; stroke-dashoffset: 0; stroke-linejoin: miter; stroke-miterlimit: 4; fill: rgb(249,189,56); fill-rule: nonzero; opacity: 1;" vector-effect="non-scaling-stroke"  transform=" translate(0, 0)" d="M -297.4943 326.23128 C -313.62528000000003 360.88207 -309.36847 367.25499 -303.11436000000003 387.59876 C -297.20880000000005 406.80876 -278.87008000000003 410.68009 -264.27476 411.1666 C -94.46344000000002 416.82698 174.90855 588.97628 256.04062999999996 390.86307 C 337.17270999999994 192.74985999999998 308.87082 -156.30674 274.90855 -205.36334999999997 C 240.94628999999998 -254.41994999999997 178.68212999999997 -412.41071999999997 116.41798 -446.37298 C 54.15383 -480.33524 3.8681100000000015 -505.24474999999995 -62.16962000000001 -465.62210999999996 C -128.20736 -425.99947 -176.48264 -405.55306999999993 -185.46881000000002 -395.65828 C -194.45499 -385.76349 -185.46881000000002 -229.89165 -185.46881000000002 -229.89165 L -121.31787000000001 136.14609 L -238.32742000000002 286.09661 C -238.32742000000002 286.09661 -240.81309000000002 282.13038 -246.33942000000002 283.62311 C -252.08582 285.17529 -281.36332000000004 291.58048 -297.4943 326.23127 z" stroke-linecap="round" />
</g>
<g transform="matrix(1 0 0 1 878.5720273402 965.1017511602)" id="qMs0uqNRJEMBtuWHz9ibe"  >
<path style="stroke: rgb(104,104,104); stroke-width: 0; stroke-dasharray: none; stroke-linecap: butt; stroke-dashoffset: 0; stroke-linejoin: miter; stroke-miterlimit: 4; fill: rgb(255,231,64); fill-rule: nonzero; opacity: 1;" vector-effect="non-scaling-stroke"  transform=" translate(0, 0)" d="M -203.81412 -218.50819 C -202.90797 -47.985810000000015 -241.73937 310.63571 -249.01253 318.05454 C -267.52513 336.93793999999997 51.60481999999999 452.50563999999997 155.24236 416.47978 C 164.89368 413.12485 189.02405 374.58911 200.28488 350.86058 L 200.28488 350.86058 C 258.72357 227.72005000000001 265.70968 86.37482 219.69879999999998 -41.92821999999995 C 173.01196999999996 -172.11616999999995 80.87590999999998 -408.63476999999995 39.76017999999999 -420.4446 C -22.17556000000001 -438.23465 -186.21399 -370.82140999999996 -186.21399 -344.25891 C -186.21399 -344.00265 -204.20072 -291.25876 -203.81412 -218.50819 z" stroke-linecap="round" />
</g>
<g transform="matrix(1 0 0 1 923.1514010225 1035.6286684767)" id="DtyOfMZUSe1X0fD8XTKAR"  >
<path style="stroke: rgb(104,104,104); stroke-width: 0; stroke-dasharray: none; stroke-linecap: butt; stroke-dashoffset: 0; stroke-linejoin: miter; stroke-miterlimit: 4; fill: rgb(255,255,255); fill-opacity: 0; fill-rule: nonzero; opacity: 1;" vector-effect="non-scaling-stroke"  transform=" translate(0, 0)" d="M 289.27428 -190.80476 C 254.08306999999996 -328.13797999999997 246.65146999999996 -341.29233 163.04215999999997 -451.71028 C 79.43285999999996 -562.12823 -8.393830000000037 -580.8192300000001 -135.95814000000001 -512.13075 C -200.70331000000002 -477.26797000000005 -206.89804 -468.58191000000005 -217.57465000000002 -451.71028 C -234.86603000000002 -424.38572 -228.24369000000002 -391.64199 -234.78830000000002 -311.31411 C -243.07327 -209.62532000000004 -225.48166000000003 -139.92519000000001 -203.5199 -58.924240000000026 L -203.5199 -58.924240000000026 C -191.31517 -13.909850000000027 -191.09854 33.514199999999974 -202.89153000000002 78.63820999999999 C -220.41556000000003 145.69111999999998 -250.09676000000002 242.18489 -305.65534 261.7938 C -379.58512 287.88667 -316.43378 605.5136399999999 -135.95813 544.63028 C -41.593800000000016 512.79653 145.74429999999998 477.68960999999996 243.25974999999997 399.00285999999994 C 332.24658999999997 327.1979799999999 335.95804 209.91221999999993 335.95804 209.91221999999993 C 335.95804 209.91221999999993 329.06595 -35.51836000000006 289.27428999999995 -190.80477000000008 z" stroke-linecap="round" />
</g>
<g transform="matrix(1.0643136746 0 0 1.0643136746 878.1297173357 1071.1624802808)" id="aF0NMieURMzPr4gDDWl3F"  >
<path style="stroke: rgb(104,104,104); stroke-width: 0; stroke-dasharray: none; stroke-linecap: butt; stroke-dashoffset: 0; stroke-linejoin: miter; stroke-miterlimit: 4; fill: rgb(255,255,255); fill-rule: nonzero; opacity: 1;" vector-effect="non-scaling-stroke"  transform=" translate(0, 0)" d="M 0 -76.92308 C 42.46154 -76.92308 76.92308 -42.46154 76.92308 0 C 76.92308 42.46154 42.46154 76.92308 0 76.92308 C -42.46154 76.92308 -76.92308 42.46154 -76.92308 0 C -76.92308 -42.46154 -42.46154 -76.92308 0 -76.92308 z" stroke-linecap="round" />
</g>
<g transform="matrix(0.7838509215 0 0 0.7838509215 878.1297173357 1071.1624802808)" id="-jV4g3bxRWWVfscAn-tie"  >
<path style="stroke: rgb(104,104,104); stroke-width: 0; stroke-dasharray: none; stroke-linecap: butt; stroke-dashoffset: 0; stroke-linejoin: miter; stroke-miterlimit: 4; fill: rgb(0,0,0); fill-rule: nonzero; opacity: 1;" vector-effect="non-scaling-stroke"  transform=" translate(0, 0)" d="M 0 -76.92323 C 42.46162 -76.92323 76.92323 -42.46162 76.92323 0 C 76.92323 42.46162 42.46162 76.92323 0 76.92323 C -42.46162 76.92323 -76.92323 42.46162 -76.92323 0 C -76.92323 -42.46162 -42.46162 -76.92323 0 -76.92323 z" stroke-linecap="round" />
</g>
</svg>